<?xml version="1.0" standalone="no"?>
<!DOCTYPE svg PUBLIC "-//W3C//DTD SVG 20010904//EN"
 "http://www.w3.org/TR/2001/REC-SVG-20010904/DTD/svg10.dtd">
<svg version="1.0" xmlns="http://www.w3.org/2000/svg"
 width="560.000000pt" height="560.000000pt" viewBox="0 0 560.000000 560.000000"
 preserveAspectRatio="xMidYMid meet">

<g transform="translate(0.000000,560.000000) scale(0.100000,-0.100000)"
fill="#d8041c" stroke="none">
<path d="M2567 5590 c-479 -46 -922 -201 -1302 -453 -169 -112 -290 -212 -440
-362 -438 -437 -701 -962 -796 -1585 -32 -209 -32 -571 0 -780 95 -623 358
-1148 796 -1585 437 -438 962 -701 1585 -796 209 -32 571 -32 780 0 623 95
1148 358 1585 796 438 437 701 962 796 1585 19 120 23 187 23 390 0 203 -4
270 -23 390 -95 623 -358 1148 -796 1585 -436 436 -969 704 -1580 795 -158 23
-485 34 -628 20z m596 -330 c655 -101 1222 -439 1617 -962 266 -352 431 -758
486 -1198 30 -241 15 -578 -37 -819 -145 -666 -561 -1248 -1146 -1603 -867
-526 -1966 -469 -2780 144 -121 91 -311 273 -415 398 -251 300 -433 674 -517
1061 -69 320 -70 708 -2 1033 102 484 360 946 720 1287 422 400 959 637 1546
683 110 9 404 -5 528 -24z"/>
<path d="M2655 2859 c-357 -1013 -650 -1846 -650 -1852 0 -14 275 -111 285
-100 10 10 1313 3694 1308 3697 -8 7 -271 96 -281 96 -7 0 -304 -829 -662
-1841z"/>
<path d="M1476 4265 c-151 -29 -312 -111 -405 -208 l-44 -46 88 -116 c48 -63
90 -115 92 -115 3 0 29 22 59 49 72 64 135 97 230 121 84 22 225 27 284 10 62
-17 126 -65 156 -116 25 -42 29 -61 32 -145 l4 -96 -178 -6 c-287 -9 -427 -36
-580 -112 -198 -97 -313 -266 -314 -461 -1 -308 258 -521 606 -501 123 7 236
39 361 103 l103 52 0 -59 0 -59 185 0 185 0 0 593 c0 653 -2 672 -62 795 -47
96 -159 207 -258 254 -41 20 -102 44 -135 53 -86 23 -309 29 -409 10z m464
-961 l32 -7 -4 -86 c-6 -116 -40 -192 -119 -265 -176 -163 -454 -177 -566 -29
-102 136 0 317 204 364 96 22 384 36 453 23z"/>
<path d="M3727 3592 c-6 -8 -728 -2058 -735 -2084 -4 -17 8 -18 160 -18 l164
0 23 73 c13 39 56 177 97 305 l75 232 279 0 278 0 16 -42 c9 -24 58 -160 110
-303 l94 -260 172 -3 c108 -1 171 1 168 7 -1 6 -183 480 -403 1055 l-400 1046
-47 0 c-26 0 -49 -3 -51 -8z m151 -952 c49 -135 93 -253 97 -262 7 -17 -6 -18
-190 -18 -154 0 -196 3 -192 13 2 6 44 128 92 270 49 142 91 254 95 250 4 -4
48 -118 98 -253z"/>
</g>
</svg>
